<svg fill="none" height="140" width="237" xmlns="http://www.w3.org/2000/svg">
  <clipPath id="a">
    <path d="M0 0h237v140H0z"/>
  </clipPath>
  <mask id="b" height="273" maskUnits="userSpaceOnUse" width="237" x="0" y="0">
    <path clip-rule="evenodd" d="M135.96.152c34.599 2.92 46.728 46.356 66.633 74.788 14.714 21.017 29.227 41.13 32.345 66.59 3.633 29.671 4.304 61.336-13.762 85.161-20.207 26.65-52.321 51.487-85.216 45.373-31.637-5.881-35.317-49.768-58.487-72.085C53.34 176.735 5.368 174.66.437 141.53c-4.952-33.267 33.314-54.59 56.596-78.876C81.173 37.47 101.188-2.783 135.96.152z" fill="#c4c4c4" fill-rule="evenodd"/>
  </mask>
  <g mask="url(#b)" clip-path="url(#a)">
    <path d="M609.211-91H-19.211C-24.065-91-28-85.962-28-79.746v271.492c0 6.216 3.935 11.254 8.79 11.254H609.21c4.854 0 8.789-5.038 8.789-11.254V-79.746C618-85.962 614.065-91 609.211-91z" fill="#e1d3c4"/>
    <path d="M94.284 37.562c8.356 0 13.567-4.83 13.567-12.017V4.589h-6.784v20.35c0 4.2-2.425 6.873-6.783 6.873s-6.806-2.673-6.806-6.873V4.589h-6.783v20.956c0 7.21 5.279 12.017 13.59 12.017zM113.112 37h6.559V23.164c0-3.145 1.864-5.3 4.806-5.3 2.943 0 4.425 1.796 4.425 4.94V37h6.559V21.457c0-5.638-3.01-9.03-8.311-9.03-3.638 0-6.109 1.685-7.344 4.448h-.135v-3.953h-6.559zm36.819.494c6.2 0 10.535-3.1 10.535-7.816v-.023c0-3.549-2.067-5.525-7.098-6.58l-4.088-.877c-2.426-.516-3.257-1.325-3.257-2.56v-.023c0-1.55 1.415-2.56 3.684-2.56 2.425 0 3.841 1.302 4.065 3.032l.023.18h6.042v-.225c-.158-4.223-3.729-7.614-10.13-7.614-6.132 0-10.085 2.965-10.085 7.547v.022c0 3.594 2.358 5.93 7.03 6.918l4.088.854c2.358.516 3.167 1.257 3.167 2.538v.022c0 1.55-1.505 2.516-3.976 2.516-2.628 0-4.043-1.1-4.469-2.988l-.045-.202h-6.402l.023.202c.516 4.56 4.222 7.637 10.893 7.637zm14.179 7.367h6.558V32.89h.135c1.303 2.852 4.021 4.604 7.457 4.604 6.02 0 9.748-4.717 9.748-12.533v-.022c0-7.84-3.728-12.511-9.838-12.511-3.414 0-6.042 1.774-7.344 4.694h-.158v-4.2h-6.558zm11.904-12.802c-3.189 0-5.368-2.74-5.368-7.076v-.022c0-4.357 2.179-7.098 5.368-7.098 3.257 0 5.323 2.673 5.323 7.075v.023c0 4.38-2.066 7.098-5.323 7.098zM191.99 37h6.558V4.589h-6.558zm18.558.382c3.167 0 5.728-1.505 7.098-3.976h.134V37h6.559V20.491c0-4.851-4.02-8.063-10.242-8.063-6.357 0-10.175 3.19-10.534 7.636l-.023.27h5.997l.045-.202c.315-1.55 1.797-2.696 4.245-2.696 2.561 0 3.953 1.326 3.953 3.46v1.482l-5.952.36c-5.974.381-9.366 2.942-9.366 7.322v.044c0 4.246 3.257 7.278 8.086 7.278zm-1.595-7.614v-.045c0-1.707 1.326-2.785 3.864-2.943l4.963-.314v1.73c0 2.515-2.156 4.402-5.098 4.402-2.269 0-3.729-1.056-3.729-2.83zm29.946 7.726c6.2 0 10.535-3.1 10.535-7.816v-.023c0-3.549-2.067-5.525-7.098-6.58l-4.088-.877c-2.426-.516-3.257-1.325-3.257-2.56v-.023c0-1.55 1.415-2.56 3.684-2.56 2.426 0 3.841 1.302 4.065 3.032l.023.18h6.042v-.225c-.157-4.223-3.729-7.614-10.13-7.614-6.132 0-10.085 2.965-10.085 7.547v.022c0 3.594 2.358 5.93 7.03 6.918l4.088.854c2.358.516 3.167 1.257 3.167 2.538v.022c0 1.55-1.505 2.516-3.976 2.516-2.627 0-4.043-1.1-4.469-2.988l-.045-.202h-6.402l.023.202c.517 4.56 4.223 7.637 10.893 7.637zM253.235 37h6.559V23.209c0-3.145 1.864-5.346 4.762-5.346 2.987 0 4.649 2 4.649 5.368V37h6.559V21.884c0-5.818-3.235-9.456-8.446-9.456-3.616 0-6.154 1.662-7.389 4.65h-.135V4.587h-6.559z" fill="#fff"/>
    <g clip-rule="evenodd" fill-rule="evenodd">
      <path d="M78 68a4 4 0 0 1 4-4h848.388a4 4 0 0 1 4 4v46a4 4 0 0 1-4 4H82a4 4 0 0 1-4-4z" fill="#f5f5f5"/>
      <path d="M108.25 95.875c-1.408 1.083-3.033 1.625-4.875 1.625-4.442 0-8.125-3.683-8.125-8.125s3.683-8.125 8.125-8.125 8.125 3.683 8.125 8.125c0 1.842-.65 3.575-1.625 4.875l4.875 4.875-1.517 1.625zm1.083-6.5c0 3.25-2.708 5.958-5.958 5.958s-5.958-2.708-5.958-5.958 2.708-5.958 5.958-5.958 5.958 2.708 5.958 5.958z" fill="#767676"/>
    </g>
  </g>
</svg>
