<svg fill="none" height="110" width="195" xmlns="http://www.w3.org/2000/svg">
  <clipPath id="a">
    <path d="M0 0h195v110H0z"/>
  </clipPath>
  <g clip-path="url(#a)">
    <path clip-rule="evenodd" d="M87.758 8.006C66.811 7.74 47.6 16.442 32.093 28.949 15.677 42.19 2.697 58.78.51 78.377-1.903 99.998 4.2 121.976 19.848 138.68c17.135 18.291 41.217 30.769 67.91 32.833 29.122 2.253 60.124-3.038 80.867-21.328 20.796-18.336 30.461-46.281 24.761-71.806-5.036-22.55-30.816-34.246-51.525-48.042-16.537-11.018-33.431-22.069-54.103-22.33z" fill="#d8eacc" fill-rule="evenodd"/>
    <rect fill="#fff" height="56" rx="10" width="56" x="115"/>
    <path d="M141.487 33.818V17.667h3.013v16.151l7.071-6.111 1.93 2.18-10.5 9.03-10.501-9.03 2.051-2.18z" fill="#333"/>
  </g>
</svg>
