<svg width="200" height="200" fill="none" xmlns="http://www.w3.org/2000/svg">
  <rect width="200" height="200" rx="100" fill="url(#a)"/>
  <path d="M179.874 108.865c-.275 0-.526.175-.656.541-1.66 4.654-3.904 7.423-5.751 7.423-1.061 0-1.49-1.162-1.49-2.984 0-4.559 2.778-14.226 4.179-18.633.162-.534.268-1.01.268-1.417 0-1.28-.713-1.91-2.479-1.91-1.904 0-3.953.733-5.945 4.162-.689-3.023-2.771-4.344-5.679-4.344-3.361 0-6.609 2.124-9.282 5.57-2.673 3.444-5.816 4.574-8.181 4.017 1.701-4.09 2.333-7.145 2.333-9.412 0-3.557-1.79-5.705-4.682-5.705-4.398 0-6.934 4.122-6.934 8.458 0 3.35 1.547 6.794 4.949 8.465-2.851 6.334-7.014 12.062-8.594 12.062-2.041 0-2.64-9.81-2.527-16.828.073-4.025.413-4.232.413-5.45 0-.7-.462-1.177-2.316-1.177-4.326 0-5.662 3.596-5.865 7.725a20.05 20.05 0 0 1-.745 4.639c-1.806 6.333-5.532 11.139-7.962 11.139-1.126 0-1.434-1.106-1.434-2.554 0-4.559 2.6-10.256 2.6-15.117 0-3.573-1.596-5.832-4.601-5.832-3.54 0-8.221 4.137-12.652 11.887 1.458-5.936 2.057-11.68-2.26-11.68a5.927 5.927 0 0 0-2.681.684 1.493 1.493 0 0 0-.875 1.448c.413 6.317-5.184 22.5-10.49 22.5-.963 0-1.433-1.026-1.433-2.681 0-4.567 2.77-14.21 4.163-18.626.179-.572.276-1.066.276-1.495 0-1.21-.762-1.83-2.487-1.83-1.895 0-3.953.708-5.937 4.137-.697-3.023-2.779-4.344-5.686-4.344-4.771 0-10.101 4.957-12.442 11.417-3.135 8.625-9.453 16.955-17.958 16.955-7.719 0-11.793-6.309-11.793-16.279 0-14.393 10.757-26.152 18.735-26.152 3.815 0 5.638 2.387 5.638 6.047 0 4.431-2.52 6.492-2.52 8.179 0 .517.438 1.026 1.305 1.026 3.466 0 7.549-4.002 7.549-9.46 0-5.458-4.512-9.452-12.49-9.452C32.268 73.984 19 87.017 19 103.717c0 13.287 6.674 21.299 18.217 21.299 7.873 0 14.75-6.015 18.46-13.033.421 5.817 3.11 8.856 7.209 8.856 3.645 0 6.593-2.132 8.845-5.88.867 3.923 3.167 5.84 6.156 5.84 3.426 0 6.294-2.132 9.023-6.094-.04 3.11.68 6.038 3.427 6.038 1.296 0 2.843-.294 3.118-1.408 2.892-11.743 10.036-21.33 12.223-21.33.648 0 .826.612.826 1.336 0 3.19-2.292 9.73-2.292 13.908 0 4.511 1.952 7.494 5.986 7.494 4.471 0 9.015-5.378 12.045-13.239.947 7.344 2.997 13.271 6.204 13.271 3.937 0 10.927-8.139 15.163-16.756 1.661.207 4.156.151 6.553-1.511-1.02 2.538-1.62 5.314-1.62 8.091 0 7.996 3.888 10.24 7.234 10.24 3.636 0 6.585-2.132 8.845-5.88.745 3.382 2.648 5.832 6.148 5.832 5.475 0 10.23-5.498 10.23-10.009 0-1.193-.518-1.917-1.126-1.917Zm-113.651 7.542c-2.211 0-3.078-2.188-3.078-5.45 0-5.665 3.945-15.125 8.116-15.125 1.823 0 2.511 2.109 2.511 4.686 0 5.753-3.75 15.889-7.549 15.889ZM141.966 99.5c-1.32-1.543-1.798-3.644-1.798-5.514 0-2.307.858-4.256 1.887-4.256s1.345.994 1.345 2.379c0 2.315-.843 5.696-1.434 7.391Zm17.148 16.907c-2.211 0-3.078-2.514-3.078-5.45 0-5.466 3.945-15.125 8.148-15.125 1.823 0 2.471 2.093 2.471 4.686 0 5.753-3.686 15.889-7.541 15.889Z" fill="#fff"/>
  <defs>
    <linearGradient id="a" x1="200" y1="232" x2="63" y2="18" gradientUnits="userSpaceOnUse">
      <stop stop-color="#7E2AE7"/>
      <stop offset="1" stop-color="#0AC5CD"/>
    </linearGradient>
  </defs>
</svg>
