<svg fill="none" height="128" width="211" xmlns="http://www.w3.org/2000/svg">
  <clipPath id="a">
    <path d="M0 0h211v128H0z"/>
  </clipPath>
  <mask id="b" height="294" maskUnits="userSpaceOnUse" width="262" x="-25" y="-39">
    <path d="M57.265-39H-25V67.027h82.265z" fill="#e1e6e7"/>
    <path d="M57.265 74.14H-25v123.143h82.265z" fill="#c2ecf9"/>
    <path d="M146.632-39H64.367V84.142h82.265zM146.632 91.255H64.367v123.143h82.265z" fill="#e1e6e7"/>
    <path d="M236-39h-82.265V97.702H236z" fill="#c2ecf9"/>
    <path d="M236 104.815h-82.265v149.371H236z" fill="#e1e6e7"/>
  </mask>
  <mask id="c" height="254" maskUnits="userSpaceOnUse" width="262" x="-25" y="-39">
    <path d="M57.265 74.14H-25v123.143h82.265z" fill="#c2ecf9"/>
    <path d="M146.632-39H64.367V84.142h82.265zM146.632 91.255H64.367v123.143h82.265z" fill="#e1e6e7"/>
    <path d="M236-39h-82.265V97.702H236z" fill="#c2ecf9"/>
  </mask>
  <g clip-path="url(#a)">
    <g mask="url(#b)">
      <path clip-rule="evenodd" d="M102.917.391c32.514-1.401 67.066 7.03 88.462 31.59 20.491 23.522 23.859 58.334 16.247 88.605-6.268 24.92-34.653 33.872-51.846 52.948-19.118 21.213-25.017 56.998-52.863 63.227-30.256 6.768-62.658-9.577-83.265-32.776-19.72-22.201-20.309-53.686-19.93-83.399.374-29.187 3.032-59.162 22.034-81.293C42.085 15.615 71.768 1.733 102.917.39z" fill="#c2ecf9" fill-rule="evenodd"/>
    </g>
    <g mask="url(#c)">
      <path clip-rule="evenodd" d="M102.917.391c32.514-1.401 67.066 7.03 88.462 31.59 20.491 23.522 23.859 58.334 16.247 88.605-6.268 24.92-34.653 33.872-51.845 52.948-19.119 21.213-25.018 56.998-52.864 63.227-30.256 6.768-62.658-9.577-83.265-32.776-19.72-22.201-20.309-53.686-19.93-83.399.374-29.187 3.032-59.162 22.034-81.293C42.085 15.615 71.768 1.733 102.917.39z" fill="#e1e6e7" fill-rule="evenodd"/>
    </g>
  </g>
</svg>
