<svg fill="none" height="115" width="147" xmlns="http://www.w3.org/2000/svg">
  <clipPath id="a">
    <path d="M0 0h147v115H0z"/>
  </clipPath>
  <g clip-path="url(#a)">
    <path clip-rule="evenodd" d="M72.28.616c16.377 3.105 20.797 23.65 32.782 35.251 12.42 12.022 33.503 16.014 37.551 32.83 4.559 18.945-2.403 40.494-16.728 53.683-13.963 12.855-34.672 12.184-53.606 11.072-17.505-1.029-34.594-5.315-47.662-17.023C10.763 104.017.084 87.313 0 68.697c-.084-18.68 10.597-35.364 24.185-48.163C37.322 8.16 54.56-2.743 72.28.616z" fill="#ffe01b" fill-rule="evenodd"/>
    <circle cx="115" cy="51" fill="#fff" r="32"/>
    <path d="M130.643 50.134a1 1 0 0 1 0 1.732L107.928 64.98a1 1 0 0 1-1.5-.866V37.886a1 1 0 0 1 1.5-.866z" fill="#111"/>
  </g>
</svg>
