<svg fill="none" height="200" width="200" xmlns="http://www.w3.org/2000/svg"><rect fill="#fff" height="200" rx="100" width="200"/><path d="m134.846 53.668c-14.399-17.207-61.1 15.643-60.71 57.878 0 .392-.39 1.174-.39 1.565-.39.391-.778.391-1.557.391-.389 0-.778 0-.778-.391-.39 0-.39-.391-.778-.782-2.725-5.866-4.281-12.515-4.281-18.772 0-5.084.778-9.777 2.335-14.47v-1.173c0-.39-.39-.782-.779-.782-.389-.39-.778-.39-1.167-.39-.39 0-.778.39-1.168.781-5.837 6.648-9.729 14.47-10.896 23.073-1.557 8.604-.39 17.599 3.113 25.42 3.502 8.213 9.34 14.861 16.734 19.554 7.395 4.693 15.957 7.43 24.518 7.43 63.047-.782 48.647-84.471 35.804-99.332z" fill="#84b840"/></svg>