<svg fill="none" height="200" width="200" xmlns="http://www.w3.org/2000/svg" xmlns:xlink="http://www.w3.org/1999/xlink"><clipPath id="a"><path d="m0 0h160v41h-160z" transform="translate(20 79)"/></clipPath><rect fill="#202641" height="200" rx="100" width="200"/><g clip-path="url(#a)"><g fill="#fff"><path d="m61.806 79v31.092h4.645v-12.642c0-1.88.516-3.075 1.549-4.1 1.032-.854 2.408-1.367 3.957-1.367 3.269 0 4.817 1.709 4.817 5.296v12.813h4.817v-13.496c0-2.904-.688-4.954-2.064-6.492-1.377-1.537-3.441-2.22-6.022-2.22-3.097 0-5.333 1.195-6.882 3.416v-12.3z"/><path clip-rule="evenodd" d="m96.559 110.604c3.269 0 5.849-1.025 8.086-3.246 2.236-2.05 3.269-4.783 3.269-8.2 0-3.416-1.033-6.15-3.269-8.2-2.065-2.22-4.817-3.245-8.086-3.245s-5.85 1.195-8.086 3.245c-2.237 2.221-3.269 4.954-3.269 8.2s1.032 5.979 3.269 8.2c2.064 2.221 4.817 3.246 8.086 3.246zm0-3.929c-1.893 0-3.441-.683-4.645-2.05-1.033-1.367-1.72-3.075-1.72-5.467 0-2.391.515-4.1 1.72-5.466 1.204-1.367 2.752-2.05 4.645-2.05 1.892 0 3.44.683 4.645 2.05 1.204 1.366 1.72 3.246 1.72 5.466 0 2.392-.516 4.1-1.72 5.467s-2.753 2.05-4.645 2.05z" fill-rule="evenodd"/><path d="m112.559 103.429c0 4.783 2.236 7.175 6.71 7.175 3.268 0 6.021-2.05 7.914-5.979l-3.785-1.879c-1.205 2.562-2.409 3.758-3.785 3.758-1.549 0-2.237-1.025-2.237-3.075v-10.933h8.602v-4.1h-8.602v-6.321h-3.613l-1.204 6.32h-3.441v4.1h3.441z"/><path d="m123.398 118.292c1.376 1.195 3.097 1.708 5.333 1.708 1.721 0 3.269-.513 4.301-1.708 1.205-1.025 1.721-2.563 1.721-4.954v-24.942h-4.817v25.112c0 1.709-.688 2.563-2.065 2.563-.86 0-1.892-.513-2.753-1.538zm6.71-34.338c.688.513 1.376.854 2.236.854.284 0 .516-.051.725-.098.17-.038.325-.072.48-.072.344-.171.688-.513 1.032-.855.344-.17.516-.512.688-.854.172-.341.172-.683.172-1.025 0-.512 0-.854-.172-1.196a2.066 2.066 0 0 0 -.86-.854 2.859 2.859 0 0 0 -2.065-.854c-.688 0-1.548.342-2.236.683-.344.342-.516.684-.688 1.025-.172.342-.172.855-.172 1.196 0 .513 0 .854.172 1.196s.344.513.688.854z"/><path clip-rule="evenodd" d="m140.946 108.725c1.549 1.196 3.613 1.879 6.022 1.879 2.753 0 4.817-1.025 6.71-3.246v2.734h4.645v-13.325c0-2.904-.86-5.125-2.581-6.663-1.72-1.537-3.957-2.22-6.882-2.22-2.58 0-4.645.683-6.537 2.05-1.893 1.366-3.097 3.074-3.613 5.466l4.645 1.025c.688-2.904 2.581-4.442 5.505-4.442 1.549 0 2.581.342 3.441 1.196s1.205 2.05 1.205 3.588v2.562c-1.721-1.537-3.957-2.391-6.366-2.391s-4.473.683-6.022 2.05c-1.548 1.195-2.408 2.904-2.408 4.783 0 2.05.688 3.758 2.236 4.954zm12.388-4.954c-1.549 2.221-3.269 3.246-5.506 3.246-1.376 0-2.408-.342-3.097-1.025-.344-.171-.688-.684-.86-1.025-.036-.107-.072-.207-.106-.302-.13-.361-.238-.659-.238-1.065 0-.513.172-1.025.344-1.367.172-.341.516-.683.86-1.025a5.981 5.981 0 0 1 3.097-.854c2.237 0 3.957 1.025 5.506 2.734z" fill-rule="evenodd"/><path d="m162.968 88.396v21.866h4.989v-10.762c0-2.22.344-3.93 1.204-5.296.861-1.366 1.893-2.05 3.097-2.05 1.893 0 2.753 1.196 2.753 3.417 0 .512 0 1.196-.172 1.708l4.473.513c.344-1.196.516-2.221.516-3.417 0-1.88-.516-3.417-1.72-4.612-1.205-1.196-2.581-1.709-4.301-1.709-2.925 0-4.99 1.367-6.194 4.1v-3.758z"/></g><path d="m31.527 91.812c3.613-2.05 8.602-4.783 8.602-12.641h-6.021c0 4.441-2.237 5.637-5.506 7.516-3.612 2.05-8.602 4.784-8.602 12.643h6.021c0-4.612 2.237-5.808 5.506-7.517zm10.322-1.879c0 4.442-2.236 5.638-5.505 7.517-3.613 2.05-8.602 4.783-8.602 12.642h6.021c0-4.442 2.237-5.638 5.506-7.517 3.613-2.05 8.602-4.783 8.602-12.642z" fill="#ff3c00"/></g></svg>