<svg fill="none" height="200" width="200" xmlns="http://www.w3.org/2000/svg"><rect fill="#f4f8fb" height="200" rx="100" width="200"/><g fill="#313538"><path clip-rule="evenodd" d="m179.676 106.113c2.099 0 5.204-1.651 6.987-6.345.977-2.955 1.897 3.39.92 4.636-.748 1.217-3.422 4.114-8.568 3.94-7.993-.203-10.753-4.809-11.615-7.098-4.716-1.13-6.182-4.694-6.556-7.156-.431 1.159-.92 2.52-1.293 4.056-1.956 7.938-4.773 11.879-8.942 8.75l-.07-.061c-1.824-1.578-3.909-3.383-4.76-9.848-.173-1.304-.345-5.853-.173-9.127-.222.77-.797 2.4-1.544 4.517v.002a572.145 572.145 0 0 0 -2.05 5.883c-.273.813-.532 1.636-.785 2.444-1.265 4.029-2.407 7.667-4.706 7.667-5.664 0-6.354-6.837-5.98-17.673-.006-.013-.053.185-.139.547-.713 3.002-4.109 17.316-9.292 17.213-1.322-.058-3.105-.435-4.571-2.231-.058 0-.058-.058-.058-.058-.977-1.188-1.667-2.549-2.213-4.201-.662 2.086-3.048 6.345-5.981 6.345-4.035 0-5.37-3.882-5.708-4.864a9.507 9.507 0 0 0 -.042-.119c-.374.724-3.68 5.041-8.021 5.041-3.422 0-6.354-2.463-7.16-5.476-1.35 2.231-4.025 5.621-9.66 5.621-4.772 0-7.878-2.115-9.344-3.766-2.588 2.144-5.693 3.621-9.545 3.621-7.217 0-8.022-6.664-8.022-12.082 0-1.97.345-6.287.662-8.923.546-3.506-.116-3.738-1.093-4.056-.978-.319-1.61-.493-2.818-.812 0 12.575-4.514 23.353-16.445 25.641-.92.261-1.84.377-2.933.377-14.75.058-16.158-11.357-16.158-17.326 0-11.907 8.367-21.816 14.606-21.816 6.238 0 10.465 1.912 9.976 6.287-.546 4.375-4.629 4.49-4.399 1.043 0-10.343-13.081 1.738-13.139 13.385-.058.754-1.035 14.69 10.092 14.429v-.058c9.976-1.101 14.433-11.358 14.433-22.744-5.262-2.636-4.773-7.62-1.41-8.373 3.739-1.043 5.435 2.955 5.435 6.345 3.153 1.103 3.954 1.35 5.22 1.742.431.133.916.283 1.565.489 2.53.84 3.997 1.42 3.738 4.056-.604 4.201-1.265 11.097-.661 14.487 1.092 5.968 4.83 4.114 8.366.608-.374-.84-.575-1.536-.748-2.144-.258-1.159-1.092-5.157-.43-9.416.977-6.171 4.34-12.082 10.838-11.908 4.313 0 6.01 3.853 6.01 8.953 0 6.22-5.911 11.902-9.072 14.94l-.1.097c1.409 2.172 3.306 3.766 5.693 3.766 2.328 0 6.066-.261 8.021-6.548.02-.094.097-.609.192-1.247.17-1.133.396-2.655.47-2.896 1.466-6.664 4.34-10.923 6.842-13.501 3.91-3.622 8.367-1.797 7.447-.493-.175.28-.426.444-.766.667-.613.402-1.513.992-2.77 2.78-3.48 5.448-5.607 12.662-4.083 17.269.258.869 1.495 2.086 2.702 2.086 2.409 0 3.97-5.236 5.325-9.78 1.039-3.483 1.956-6.56 3.042-6.56 1.059 0 .679 3.393.523 4.788l-.034.31c-.317 2.869.057 10.286 1.897 11.821 3.393 2.955 6.929-2.897 6.498-7.88v-.232c-.201-4.317.316-9.764 1.524-16.775l-.117.035c-2.047.613-3.028.907-5.145 1.703-1.064.434-1.61-1.246-.259-1.912.834-.377 2.444-.956 5.981-2.173.373-2.231.805-4.578 1.351-7.099l6.124-2.723a263.513 263.513 0 0 0 -1.466 7.88c5.146-1.564 10.408-2.897 13.283-2.78.23 0 .431 0 .603.057 2.214.348 3.422 2.028 3.364 3.622-.057 1.767-2.012 3.129-5.06 3.129-2.588-.03-3.68-1.912-3.623-3.65-2.156.434-5.319 1.13-8.941 2.172-1.84 11.647-2.271 20.89-.863 24.106 1.738 4.039 2.656 2.57 4.567-.487l.149-.238c2.817-4.81 5.52-17.123 5.577-17.5.173-.81 5.693-3.94 5.693-1.303-.045 1.274-.099 2.558-.152 3.83-.252 6.047-.493 11.812.267 14.828.172.725.977 3.274 2.444-.376.17-.41.433-1.007.752-1.73.922-2.094 2.312-5.25 3.273-8.005.847-2.325 1.548-3.75 2.058-4.79.304-.62.541-1.101.702-1.555.345-.84 5.261-2.463 5.434-1.101.201 8.2.374 14.747 1.84 18.311.546 1.303 1.524 2.897 2.386.26.547-1.68 1.093-4.635 1.524-7.59l.015-.111.02-.144c.39-2.854 1.286-9.415 6.808-8.234.862.231.805.724.374 1.709v.058c-2.214 4.49-.202 9.416 3.105 10.778a14.989 14.989 0 0 1 .057-4.375c.863-4.578 3.537-10.604 9.718-10.43 4.227.087 5.75 3.1 5.52 6.605 0 4.81-3.191 11.271-9.372 11.532 1.466 4.259 5.146 4.635 6.842 4.635zm-105.315-23.7c2.013 0 2.128 7.823-3.91 14.052-1.898-5.128 1.581-14.052 3.91-14.052zm100.686 5.303c2.645 0 1.783 10.662-3.248 10.72-.604-4.318 1.523-10.72 3.248-10.72zm-103.992 45.284 5.146-11.879h1.899l5.145 11.879h-2.155l-1.208-2.839h-5.492l-1.208 2.839zm6.066-9.387-2.012 4.693h4.025z" fill-rule="evenodd"/><path d="m57.484 126.771-3.536-5.592h-2.158v11.821h1.984v-8.431l3.652 5.534h.057l3.68-5.592v8.489h2.07v-11.821h-2.183l-3.565 5.592zm85.621-3.68h3.738v9.909h2.07v-9.909h3.68v-1.912h-9.488z"/><path clip-rule="evenodd" d="m100.611 124.946c0-1.043-.316-1.913-.978-2.579-.747-.753-1.897-1.159-3.364-1.159h-5.204v11.763h2.07v-4.114h2.56l2.875 4.114h2.443l-3.134-4.433c1.582-.463 2.732-1.651 2.732-3.592zm-7.475 2.086v-3.941h2.99c1.523 0 2.444.725 2.444 1.97v.058c0 1.217-.92 1.971-2.387 1.971z" fill-rule="evenodd"/><path d="m119.127 121.179h-2.502l-5.606 5.969v-5.969h-2.042v11.821h2.042v-3.448l1.869-1.854 3.938 5.302h2.502l-5.032-6.722zm15.726 6.78h-5.865v3.187h6.67v1.854h-8.74v-11.821h8.683v1.854h-6.613v3.071h5.865z"/></g></svg>