<svg fill="none" height="200" width="200" xmlns="http://www.w3.org/2000/svg"><rect fill="#34ba96" height="200" rx="100" width="200"/><path clip-rule="evenodd" d="m113.5 121.934c.609 3.339 3.761 5.627 7.163 5.627h10.733l6.222-.867c-9.951 14.537-27.232 21.228-46.128 18.271-15.378-2.402-28.59-12.765-34.171-27.231-12.655-32.845 11.444-64.206 42.84-64.206 16.365 0 30.718 9.534 38.945 21.056 2.371 3.32 6.517 4.282 9.669 2.103 2.992-2.065 3.864-5.99 2.063-9.075-11.379-17.69-31.832-29.009-54.829-27.473-29.947 2.001-54.181 26.396-55.905 56.227-2 34.713 25.656 63.053 60.057 63.053 18.07 0 34.249-7.833 45.269-20.508l-1.307 7.271v6.571c0 3.384 2.294 6.532 5.645 7.131 4.402.79 8.234-2.556 8.234-6.794v-39.352h-37.683c-4.254 0-7.618 3.818-6.824 8.196z" fill="#fff" fill-rule="evenodd"/></svg>